<svg width="69" height="69" viewBox="0 0 69 69" fill="none" xmlns="http://www.w3.org/2000/svg">
<path fill-rule="evenodd" clip-rule="evenodd" d="M34.5 69C53.5538 69 69 53.5538 69 34.5C69 15.4462 53.5538 0 34.5 0C15.4462 0 0 15.4462 0 34.5C0 53.5538 15.4462 69 34.5 69Z" fill="#5454D4" fill-opacity="0.1"/>
<path d="M28.0137 47.3333H41.9871C45.6671 47.3333 47.1337 45.08 47.3071 42.3333L48.0004 31.32C48.1871 28.44 45.8937 26 43.0004 26C42.1871 26 41.4404 25.5333 41.0671 24.8133L40.1071 22.88C39.4937 21.6667 37.8937 20.6667 36.5337 20.6667H33.4804C32.1071 20.6667 30.5071 21.6667 29.8937 22.88L28.9337 24.8133C28.5604 25.5333 27.8137 26 27.0004 26C24.1071 26 21.8137 28.44 22.0004 31.32L22.6937 42.3333C22.8537 45.08 24.3337 47.3333 28.0137 47.3333Z" stroke="#5454D4" stroke-width="2" stroke-linecap="round" stroke-linejoin="round"/>
<path d="M33 28.6667H37" stroke="#5454D4" stroke-width="2" stroke-linecap="round" stroke-linejoin="round"/>
<path d="M34.9998 42C37.3865 42 39.3332 40.0533 39.3332 37.6667C39.3332 35.28 37.3865 33.3333 34.9998 33.3333C32.6132 33.3333 30.6665 35.28 30.6665 37.6667C30.6665 40.0533 32.6132 42 34.9998 42Z" stroke="#5454D4" stroke-width="2" stroke-linecap="round" stroke-linejoin="round"/>
</svg>
