<svg width="52" height="52" viewBox="0 0 52 52" fill="none" xmlns="http://www.w3.org/2000/svg">
<path d="M25.9998 0.666626C27.7487 0.666626 29.1665 2.08439 29.1665 3.83329V22.8333H48.1665C49.9154 22.8333 51.3332 24.2511 51.3332 26C51.3332 27.7489 49.9154 29.1666 48.1665 29.1666H29.1665V48.1666C29.1665 49.9155 27.7487 51.3333 25.9998 51.3333C24.2509 51.3333 22.8332 49.9155 22.8332 48.1666V29.1666H3.83317C2.08427 29.1666 0.666504 27.7489 0.666504 26C0.666504 24.2511 2.08427 22.8333 3.83317 22.8333H22.8332V3.83329C22.8332 2.08439 24.2509 0.666626 25.9998 0.666626Z" fill="#E7E7E7"/>
</svg>
